<svg xmlns="http://www.w3.org/2000/svg" width="1000" height="534" viewBox="0 0 1000 534" role="img" aria-labelledby="title"><title id="title">SELECTED WORK</title><defs><linearGradient id="g"><stop stop-color="#10271f"/><stop offset="1" stop-color="#080e14"/></linearGradient></defs><rect width="1000" height="534" rx="20" fill="url(#g)"/><g stroke="#6ddbb0" stroke-opacity=".045" fill="none"><path d="M0 0V534"/><path d="M40 0V534"/><path d="M80 0V534"/><path d="M120 0V534"/><path d="M160 0V534"/><path d="M200 0V534"/><path d="M240 0V534"/><path d="M280 0V534"/><path d="M320 0V534"/><path d="M360 0V534"/><path d="M400 0V534"/><path d="M440 0V534"/><path d="M480 0V534"/><path d="M520 0V534"/><path d="M560 0V534"/><path d="M600 0V534"/><path d="M640 0V534"/><path d="M680 0V534"/><path d="M720 0V534"/><path d="M760 0V534"/><path d="M800 0V534"/><path d="M840 0V534"/><path d="M880 0V534"/><path d="M920 0V534"/><path d="M960 0V534"/><path d="M1000 0V534"/><path d="M0 0H1000"/><path d="M0 40H1000"/><path d="M0 80H1000"/><path d="M0 120H1000"/><path d="M0 160H1000"/><path d="M0 200H1000"/><path d="M0 240H1000"/><path d="M0 280H1000"/><path d="M0 320H1000"/><path d="M0 360H1000"/><path d="M0 400H1000"/><path d="M0 440H1000"/><path d="M0 480H1000"/><path d="M0 520H1000"/></g><rect x=".5" y=".5" width="999" height="533" rx="20" stroke="#6ddbb0" stroke-opacity=".22" fill="none"/><path d="M32 28h28M32 28v28M968 506h-28M968 506v-28" fill="none" stroke="#6ddbb0" stroke-width="2"/><text x="52" y="58" font-family="monospace" font-size="14" font-weight="600" fill="#6ddbb0">03 / SELECTED WORK</text><text x="52" y="113" font-family="Arial, sans-serif" font-size="34" font-weight="700" fill="#edfff6">Software with a purpose.</text><rect x="52" y="148" width="436" height="350" rx="12" fill="#081b15" stroke="#285040"/><text x="76" y="184" font-family="monospace" font-size="11" font-weight="400" fill="#6ddbb0">ADMISSIONS / EDTECH</text><text x="76" y="230" font-family="Arial, sans-serif" font-size="32" font-weight="700" fill="#f0fff6">WWAH.AI</text><text x="76" y="262" font-family="Arial, sans-serif" font-size="16" font-weight="400" fill="#95cbb7">Technical Team Lead</text><text x="76" y="307" font-family="Arial, sans-serif" font-size="17" font-weight="400" fill="#c4ded3">› Context-aware AI admissions assistant</text><text x="76" y="341" font-family="Arial, sans-serif" font-size="17" font-weight="400" fill="#c4ded3">› Success Chance Engine</text><text x="76" y="375" font-family="Arial, sans-serif" font-size="17" font-weight="400" fill="#c4ded3">› Excel-to-MongoDB data ingestion</text><text x="76" y="409" font-family="Arial, sans-serif" font-size="17" font-weight="400" fill="#c4ded3">› PayPro payment integration</text><text x="76" y="443" font-family="Arial, sans-serif" font-size="17" font-weight="400" fill="#c4ded3">› Four-developer Agile team</text><rect x="512" y="148" width="436" height="350" rx="12" fill="#081b15" stroke="#285040"/><text x="536" y="184" font-family="monospace" font-size="11" font-weight="400" fill="#6ddbb0">INTELLIGENCE FOR BUSINESS</text><text x="536" y="230" font-family="Arial, sans-serif" font-size="32" font-weight="700" fill="#f0fff6">GENREXA</text><text x="536" y="262" font-family="Arial, sans-serif" font-size="16" font-weight="400" fill="#95cbb7">Independent Builder</text><text x="536" y="307" font-family="Arial, sans-serif" font-size="17" font-weight="400" fill="#c4ded3">› Conversational AI interface</text><text x="536" y="341" font-family="Arial, sans-serif" font-size="17" font-weight="400" fill="#c4ded3">› WebRTC video + Socket.IO signaling</text><text x="536" y="375" font-family="Arial, sans-serif" font-size="17" font-weight="400" fill="#c4ded3">› Gesture navigation and air keyboard</text><text x="536" y="409" font-family="Arial, sans-serif" font-size="17" font-weight="400" fill="#c4ded3">› Architecture, APIs and product design</text><text x="536" y="443" font-family="Arial, sans-serif" font-size="17" font-weight="400" fill="#c4ded3">› Vercel + MongoDB deployment</text></svg>